# WaveFront *.obj file (generated by Cinema 4D)

mtllib ./Fence.mtl

v -19 -110 1644.8184814453125
v -19 110 1644.8184814453125
v 19 -110 1644.8184814453125
v 19 110 1644.8184814453125
v 19 -110 1194.8184814453125
v 19 110 1194.8184814453125
v -19 -110 1194.8184814453125
v -19 110 1194.8184814453125
v 19 -110 1245.841064453125
v 19 110 1245.841064453125
v -19 110 1245.841064453125
v -19 -110 1245.841064453125
v 19 -110 1593.6937255859375
v 19 110 1593.6937255859375
v -19 110 1593.6937255859375
v -19 -110 1593.6937255859375
v 19 -30.05100631713867 1644.8184814453125
v 19 -30.05100631713867 1593.6937255859375
v 19 -30.05100631713867 1245.841064453125
v 19 -30.05100631713867 1194.8184814453125
v -19 -30.05100631713867 1194.8184814453125
v -19 -30.05100631713867 1245.841064453125
v -19 -30.05100631713867 1593.6937255859375
v -19 -30.05100631713867 1644.8184814453125
v 6 110 1245.841064453125
v 6 110 1593.6937255859375
v 6 -30.05100631713867 1593.6937255859375
v 6 -30.05100631713867 1245.841064453125
v -6 110 1245.841064453125
v -6 110 1593.6937255859375
v -6 -30.05100631713867 1245.841064453125
v -6 -30.05100631713867 1593.6937255859375
v 5.99892902374268 110 1593.6937255859375
v 5.99892902374268 110 1644.8184814453125
v 5.99892902374268 -30.05100631713867 1644.8184814453125
v 5.99892902374268 -110 1644.8184814453125
v 5.99892902374268 -110 1593.6937255859375
v 5.99892902374268 -110 1245.841064453125
v 5.99892902374268 -110 1194.8184814453125
v 5.99892902374268 -30.05100631713867 1194.8184814453125
v 5.99892902374268 110 1194.8184814453125
v 5.99892902374268 110 1245.841064453125
v -5.9994215965271 110 1593.6937255859375
v -5.9994215965271 110 1245.841064453125
v -5.9994215965271 110 1194.8184814453125
v -5.9994215965271 -30.05100631713867 1194.8184814453125
v -5.9994215965271 -110 1194.8184814453125
v -5.9994215965271 -110 1245.841064453125
v -5.9994215965271 -110 1593.6937255859375
v -5.9994215965271 -110 1644.8184814453125
v -5.9994215965271 -30.05100631713867 1644.8184814453125
v -5.9994215965271 110 1644.8184814453125
v 5.99892902374268 100 1593.6937255859375
v 5.99892902374268 100 1245.841064453125
v -5.9994215965271 100 1593.6937255859375
v -5.9994215965271 100 1245.841064453125
v -6 100.05024719238281 1245.841064453125
v -19 100.05024719238281 1245.841064453125
v -19 100.05024719238281 1194.8184814453125
v -5.9994215965271 100.05024719238281 1194.8184814453125
v 5.99892902374268 100.05024719238281 1194.8184814453125
v 19 100.05024719238281 1194.8184814453125
v 19 100.05024719238281 1245.841064453125
v 6 100.05024719238281 1245.841064453125
v 6 100.05024719238281 1593.6937255859375
v 19 100.05024719238281 1593.6937255859375
v 19 100.05024719238281 1644.8184814453125
v 5.99892902374268 100.05024719238281 1644.8184814453125
v -5.9994215965271 100.05024719238281 1644.8184814453125
v -19 100.05024719238281 1644.8184814453125
v -19 100.05024719238281 1593.6937255859375
v -6 100.05024719238281 1593.6937255859375
# 72 vertices

vn 0 0 1
vn 1 0 0
vn 0 0 -1
vn -1 0 0
vn 0 1 0
vn 0 -1 0
# 6 normals

vt 0.34212046861649 0.3634045124054 0
vt 0.65786647796631 0.3634045124054 0
vt 0.65786653757095 0 0
vt 0.34212046861649 0 0
vt 1 0.3634045124054 0
vt 1 0 0
vt 0.88661628961563 0 0
vt 0.88661623001099 0.3634045124054 0
vt 0.3421334028244 0.3634045124054 0
vt 0.65787947177887 0.3634045124054 0
vt 0.65787953138351 0 0
vt 0.34213343262672 0 0
vt 0 0 0
vt 0 0.3634045124054 0
vt 0.11338368058205 0.3634045124054 0
vt 0.11338368803263 0 0
vt 0.34212046861649 1 0
vt 0.65786653757095 1 0
vt 0.65786647796631 0.88661634922028 0
vt 0.34212046861649 0.88661634922028 0
vt 0.34212046861649 0.11338376998901 0
vt 0.65786647796631 0.11338376998901 0
vt 0.1136105209589 0 0
vt 0.1136105209589 0.3634045124054 0
vt 0.65786647796631 0.11361050605774 0
vt 0.34212046861649 0.11361050605774 0
vt 0.88638949394226 0.3634045124054 0
vt 0.88638949394226 0 0
vt 0.34212046861649 0.88638949394226 0
vt 0.65786647796631 0.88638949394226 0
vt 0 0.95477384328842 0
vt 0 1 0
vt 0.1136105209589 1 0
vt 0.1136105209589 0.95477384328842 0
vt 1 0.95477384328842 0
vt 0.88638949394226 0.95477384328842 0
vt 0.88661623001099 0.95477384328842 0
vt 0.88661628961563 1 0
vt 1 1 0
vt 0.34213343262672 1 0
vt 0.65787953138351 1 0
vt 0.65787947177887 0.95477384328842 0
vt 0.3421334028244 0.95477384328842 0
vt 0.11338368803263 1 0
vt 0.11338368058205 0.95477384328842 0
vt 0.88638949394226 1 0
vt 0.65786647796631 0.95477384328842 0
vt 0.34212046861649 0.95477384328842 0
vt 0.88661623001099 1 0
vt 0.11338368058205 1 0
vt 1 0.11361050605774 0
vt 1 0.88638949394226 0
vt 1 0.11338376998901 0
vt 1 0.88661634922028 0
vt 0 0.11361050605774 0
vt 0 0.88661634922028 0
vt 0 0.11338376998901 0
vt 0 0.88638949394226 0
# 58 texture coordinates

o 1
usemtl default
f 50/4/1 36/3/1 35/2/1 51/1/1
f 19/8/2 9/7/2 5/6/2 20/5/2
f 39/12/3 47/11/3 46/10/3 40/9/3
f 12/16/4 22/15/4 21/14/4 7/13/4
f 44/20/5 42/19/5 41/18/5 45/17/5
f 47/4/6 39/3/6 38/22/6 48/21/6
f 19/8/2 18/24/2 13/23/2 9/7/2
f 54/19/5 56/20/5 55/26/5 53/25/5
f 22/15/4 12/16/4 16/28/4 23/27/4
f 48/21/6 38/22/6 37/30/6 49/29/6
f 18/24/2 17/14/2 3/13/2 13/23/2
f 33/25/5 43/26/5 52/4/5 34/3/5
f 23/27/4 16/28/4 1/6/4 24/5/4
f 49/29/6 37/30/6 36/18/6 50/17/6
f 66/34/2 14/33/2 4/32/2 67/31/2
f 71/36/4 23/27/4 24/5/4 70/35/4
f 62/35/2 6/39/2 10/38/2 63/37/2
f 61/43/3 60/42/3 45/41/3 41/40/3
f 58/45/4 11/44/4 8/32/4 59/31/4
f 57/45/4 31/15/4 32/27/4 72/36/4
f 70/35/4 2/39/4 15/46/4 71/36/4
f 69/48/1 68/47/1 34/18/1 52/17/1
f 65/34/3 26/33/3 14/33/3 66/34/3
f 31/15/5 22/15/5 23/27/5 32/27/5
f 64/37/1 63/37/1 10/38/1 25/49/1
f 27/24/5 18/24/5 19/8/5 28/8/5
f 57/45/1 29/50/1 11/44/1 58/45/1
f 72/36/3 71/36/3 15/46/3 30/46/3
f 34/3/5 4/6/5 14/51/5 33/25/5
f 68/47/1 67/35/1 4/39/1 34/18/1
f 36/3/1 3/6/1 17/5/1 35/2/1
f 37/30/6 13/52/6 3/39/6 36/18/6
f 38/22/6 9/53/6 13/52/6 37/30/6
f 39/3/6 5/6/6 9/53/6 38/22/6
f 40/9/3 20/14/3 5/13/3 39/12/3
f 61/43/3 41/40/3 6/32/3 62/31/3
f 42/19/5 10/54/5 6/39/5 41/18/5
f 43/26/5 15/55/5 2/13/5 52/4/5
f 69/48/1 52/17/1 2/32/1 70/31/1
f 45/17/5 8/32/5 11/56/5 44/20/5
f 60/42/3 59/35/3 8/39/3 45/41/3
f 47/11/3 7/6/3 21/5/3 46/10/3
f 48/21/6 12/57/6 7/13/6 47/4/6
f 49/29/6 16/58/6 12/57/6 48/21/6
f 50/17/6 1/32/6 16/58/6 49/29/6
f 51/1/1 24/14/1 1/13/1 50/4/1
f 55/26/3 43/26/3 33/25/3 53/25/3
f 72/36/3 32/27/3 23/27/3 71/36/3
f 54/19/1 42/19/1 44/20/1 56/20/1
f 58/45/1 22/15/1 31/15/1 57/45/1
f 59/31/4 21/14/4 22/15/4 58/45/4
f 60/42/3 46/10/3 21/5/3 59/35/3
f 61/43/3 40/9/3 46/10/3 60/42/3
f 62/31/3 20/14/3 40/9/3 61/43/3
f 63/37/2 19/8/2 20/5/2 62/35/2
f 64/37/1 28/8/1 19/8/1 63/37/1
f 65/34/2 27/24/2 28/8/2 64/37/2
f 66/34/3 18/24/3 27/24/3 65/34/3
f 67/31/2 17/14/2 18/24/2 66/34/2
f 68/47/1 35/2/1 17/5/1 67/35/1
f 69/48/1 51/1/1 35/2/1 68/47/1
f 70/31/1 24/14/1 51/1/1 69/48/1

v -19 -110 954.58551025390625
v -19 110 954.58551025390625
v 19 -110 954.58551025390625
v 19 110 954.58551025390625
v 19 -110 504.58554077148438
v 19 110 504.58554077148438
v -19 -110 504.58554077148438
v -19 110 504.58554077148438
v 19 -110 555.60821533203125
v 19 110 555.60821533203125
v -19 110 555.60821533203125
v -19 -110 555.60821533203125
v 19 -110 903.4608154296875
v 19 110 903.4608154296875
v -19 110 903.4608154296875
v -19 -110 903.4608154296875
v 19 -30.05100631713867 954.58551025390625
v 19 -30.05100631713867 903.4608154296875
v 19 -30.05100631713867 555.60821533203125
v 19 -30.05100631713867 504.58554077148438
v -19 -30.05100631713867 504.58554077148438
v -19 -30.05100631713867 555.60821533203125
v -19 -30.05100631713867 903.4608154296875
v -19 -30.05100631713867 954.58551025390625
v 6 110 555.60821533203125
v 6 110 903.4608154296875
v 6 -30.05100631713867 903.4608154296875
v 6 -30.05100631713867 555.60821533203125
v -6 110 555.60821533203125
v -6 110 903.4608154296875
v -6 -30.05100631713867 555.60821533203125
v -6 -30.05100631713867 903.4608154296875
v 5.99892902374268 110 903.4608154296875
v 5.99892902374268 110 954.58551025390625
v 5.99892902374268 -30.05100631713867 954.58551025390625
v 5.99892902374268 -110 954.58551025390625
v 5.99892902374268 -110 903.4608154296875
v 5.99892902374268 -110 555.60821533203125
v 5.99892902374268 -110 504.58554077148438
v 5.99892902374268 -30.05100631713867 504.58554077148438
v 5.99892902374268 110 504.58554077148438
v 5.99892902374268 110 555.60821533203125
v -5.9994215965271 110 903.4608154296875
v -5.9994215965271 110 555.60821533203125
v -5.9994215965271 110 504.58554077148438
v -5.9994215965271 -30.05100631713867 504.58554077148438
v -5.9994215965271 -110 504.58554077148438
v -5.9994215965271 -110 555.60821533203125
v -5.9994215965271 -110 903.4608154296875
v -5.9994215965271 -110 954.58551025390625
v -5.9994215965271 -30.05100631713867 954.58551025390625
v -5.9994215965271 110 954.58551025390625
v 5.99892902374268 100 903.4608154296875
v 5.99892902374268 100 555.60821533203125
v -5.9994215965271 100 903.4608154296875
v -5.9994215965271 100 555.60821533203125
v -6 100.05024719238281 555.60821533203125
v -19 100.05024719238281 555.60821533203125
v -19 100.05024719238281 504.58554077148438
v -5.9994215965271 100.05024719238281 504.58554077148438
v 5.99892902374268 100.05024719238281 504.58554077148438
v 19 100.05024719238281 504.58554077148438
v 19 100.05024719238281 555.60821533203125
v 6 100.05024719238281 555.60821533203125
v 6 100.05024719238281 903.4608154296875
v 19 100.05024719238281 903.4608154296875
v 19 100.05024719238281 954.58551025390625
v 5.99892902374268 100.05024719238281 954.58551025390625
v -5.9994215965271 100.05024719238281 954.58551025390625
v -19 100.05024719238281 954.58551025390625
v -19 100.05024719238281 903.4608154296875
v -6 100.05024719238281 903.4608154296875
# 72 vertices

# 0 normal

# 0 texture coordinate

o 2
usemtl default
f 122/4/1 108/3/1 107/2/1 123/1/1
f 91/8/2 81/7/2 77/6/2 92/5/2
f 111/12/3 119/11/3 118/10/3 112/9/3
f 84/16/4 94/15/4 93/14/4 79/13/4
f 116/20/5 114/19/5 113/18/5 117/17/5
f 119/4/6 111/3/6 110/22/6 120/21/6
f 91/8/2 90/24/2 85/23/2 81/7/2
f 126/19/5 128/20/5 127/26/5 125/25/5
f 94/15/4 84/16/4 88/28/4 95/27/4
f 120/21/6 110/22/6 109/30/6 121/29/6
f 90/24/2 89/14/2 75/13/2 85/23/2
f 105/25/5 115/26/5 124/4/5 106/3/5
f 95/27/4 88/28/4 73/6/4 96/5/4
f 121/29/6 109/30/6 108/18/6 122/17/6
f 138/34/2 86/33/2 76/32/2 139/31/2
f 143/36/4 95/27/4 96/5/4 142/35/4
f 134/35/2 78/39/2 82/38/2 135/37/2
f 133/43/3 132/42/3 117/41/3 113/40/3
f 130/45/4 83/44/4 80/32/4 131/31/4
f 129/45/4 103/15/4 104/27/4 144/36/4
f 142/35/4 74/39/4 87/46/4 143/36/4
f 141/48/1 140/47/1 106/18/1 124/17/1
f 137/34/3 98/33/3 86/33/3 138/34/3
f 103/15/5 94/15/5 95/27/5 104/27/5
f 136/37/1 135/37/1 82/38/1 97/49/1
f 99/24/5 90/24/5 91/8/5 100/8/5
f 129/45/1 101/50/1 83/44/1 130/45/1
f 144/36/3 143/36/3 87/46/3 102/46/3
f 106/3/5 76/6/5 86/51/5 105/25/5
f 140/47/1 139/35/1 76/39/1 106/18/1
f 108/3/1 75/6/1 89/5/1 107/2/1
f 109/30/6 85/52/6 75/39/6 108/18/6
f 110/22/6 81/53/6 85/52/6 109/30/6
f 111/3/6 77/6/6 81/53/6 110/22/6
f 112/9/3 92/14/3 77/13/3 111/12/3
f 133/43/3 113/40/3 78/32/3 134/31/3
f 114/19/5 82/54/5 78/39/5 113/18/5
f 115/26/5 87/55/5 74/13/5 124/4/5
f 141/48/1 124/17/1 74/32/1 142/31/1
f 117/17/5 80/32/5 83/56/5 116/20/5
f 132/42/3 131/35/3 80/39/3 117/41/3
f 119/11/3 79/6/3 93/5/3 118/10/3
f 120/21/6 84/57/6 79/13/6 119/4/6
f 121/29/6 88/58/6 84/57/6 120/21/6
f 122/17/6 73/32/6 88/58/6 121/29/6
f 123/1/1 96/14/1 73/13/1 122/4/1
f 127/26/3 115/26/3 105/25/3 125/25/3
f 144/36/3 104/27/3 95/27/3 143/36/3
f 126/19/1 114/19/1 116/20/1 128/20/1
f 130/45/1 94/15/1 103/15/1 129/45/1
f 131/31/4 93/14/4 94/15/4 130/45/4
f 132/42/3 118/10/3 93/5/3 131/35/3
f 133/43/3 112/9/3 118/10/3 132/42/3
f 134/31/3 92/14/3 112/9/3 133/43/3
f 135/37/2 91/8/2 92/5/2 134/35/2
f 136/37/1 100/8/1 91/8/1 135/37/1
f 137/34/2 99/24/2 100/8/2 136/37/2
f 138/34/3 90/24/3 99/24/3 137/34/3
f 139/31/2 89/14/2 90/24/2 138/34/2
f 140/47/1 107/2/1 89/5/1 139/35/1
f 141/48/1 123/1/1 107/2/1 140/47/1
f 142/31/1 96/14/1 123/1/1 141/48/1

v -19 -110 225
v -19 110 225
v 19 -110 225
v 19 110 225
v 19 -110 -225
v 19 110 -225
v -19 -110 -225
v -19 110 -225
v 19 -110 -173.97734069824219
v 19 110 -173.97734069824219
v -19 110 -173.97734069824219
v -19 -110 -173.97734069824219
v 19 -110 173.87525939941406
v 19 110 173.87525939941406
v -19 110 173.87525939941406
v -19 -110 173.87525939941406
v 19 -30.05100631713867 225
v 19 -30.05100631713867 173.87525939941406
v 19 -30.05100631713867 -173.97734069824219
v 19 -30.05100631713867 -225
v -19 -30.05100631713867 -225
v -19 -30.05100631713867 -173.97734069824219
v -19 -30.05100631713867 173.87525939941406
v -19 -30.05100631713867 225
v 6 110 -173.97734069824219
v 6 110 173.87525939941406
v 6 -30.05100631713867 173.87525939941406
v 6 -30.05100631713867 -173.97734069824219
v -6 110 -173.97734069824219
v -6 110 173.87525939941406
v -6 -30.05100631713867 -173.97734069824219
v -6 -30.05100631713867 173.87525939941406
v 5.99892902374268 110 173.87525939941406
v 5.99892902374268 110 225
v 5.99892902374268 -30.05100631713867 225
v 5.99892902374268 -110 225
v 5.99892902374268 -110 173.87525939941406
v 5.99892902374268 -110 -173.97734069824219
v 5.99892902374268 -110 -225
v 5.99892902374268 -30.05100631713867 -225
v 5.99892902374268 110 -225
v 5.99892902374268 110 -173.97734069824219
v -5.9994215965271 110 173.87525939941406
v -5.9994215965271 110 -173.97734069824219
v -5.9994215965271 110 -225
v -5.9994215965271 -30.05100631713867 -225
v -5.9994215965271 -110 -225
v -5.9994215965271 -110 -173.97734069824219
v -5.9994215965271 -110 173.87525939941406
v -5.9994215965271 -110 225
v -5.9994215965271 -30.05100631713867 225
v -5.9994215965271 110 225
v 5.99892902374268 100 173.87525939941406
v 5.99892902374268 100 -173.97734069824219
v -5.9994215965271 100 173.87525939941406
v -5.9994215965271 100 -173.97734069824219
v -6 100.05024719238281 -173.97734069824219
v -19 100.05024719238281 -173.97734069824219
v -19 100.05024719238281 -225
v -5.9994215965271 100.05024719238281 -225
v 5.99892902374268 100.05024719238281 -225
v 19 100.05024719238281 -225
v 19 100.05024719238281 -173.97734069824219
v 6 100.05024719238281 -173.97734069824219
v 6 100.05024719238281 173.87525939941406
v 19 100.05024719238281 173.87525939941406
v 19 100.05024719238281 225
v 5.99892902374268 100.05024719238281 225
v -5.9994215965271 100.05024719238281 225
v -19 100.05024719238281 225
v -19 100.05024719238281 173.87525939941406
v -6 100.05024719238281 173.87525939941406
# 72 vertices

# 0 normal

# 0 texture coordinate

o 3
usemtl default
f 194/4/1 180/3/1 179/2/1 195/1/1
f 163/8/2 153/7/2 149/6/2 164/5/2
f 183/12/3 191/11/3 190/10/3 184/9/3
f 156/16/4 166/15/4 165/14/4 151/13/4
f 188/20/5 186/19/5 185/18/5 189/17/5
f 191/4/6 183/3/6 182/22/6 192/21/6
f 163/8/2 162/24/2 157/23/2 153/7/2
f 198/19/5 200/20/5 199/26/5 197/25/5
f 166/15/4 156/16/4 160/28/4 167/27/4
f 192/21/6 182/22/6 181/30/6 193/29/6
f 162/24/2 161/14/2 147/13/2 157/23/2
f 177/25/5 187/26/5 196/4/5 178/3/5
f 167/27/4 160/28/4 145/6/4 168/5/4
f 193/29/6 181/30/6 180/18/6 194/17/6
f 210/34/2 158/33/2 148/32/2 211/31/2
f 215/36/4 167/27/4 168/5/4 214/35/4
f 206/35/2 150/39/2 154/38/2 207/37/2
f 205/43/3 204/42/3 189/41/3 185/40/3
f 202/45/4 155/44/4 152/32/4 203/31/4
f 201/45/4 175/15/4 176/27/4 216/36/4
f 214/35/4 146/39/4 159/46/4 215/36/4
f 213/48/1 212/47/1 178/18/1 196/17/1
f 209/34/3 170/33/3 158/33/3 210/34/3
f 175/15/5 166/15/5 167/27/5 176/27/5
f 208/37/1 207/37/1 154/38/1 169/49/1
f 171/24/5 162/24/5 163/8/5 172/8/5
f 201/45/1 173/50/1 155/44/1 202/45/1
f 216/36/3 215/36/3 159/46/3 174/46/3
f 178/3/5 148/6/5 158/51/5 177/25/5
f 212/47/1 211/35/1 148/39/1 178/18/1
f 180/3/1 147/6/1 161/5/1 179/2/1
f 181/30/6 157/52/6 147/39/6 180/18/6
f 182/22/6 153/53/6 157/52/6 181/30/6
f 183/3/6 149/6/6 153/53/6 182/22/6
f 184/9/3 164/14/3 149/13/3 183/12/3
f 205/43/3 185/40/3 150/32/3 206/31/3
f 186/19/5 154/54/5 150/39/5 185/18/5
f 187/26/5 159/55/5 146/13/5 196/4/5
f 213/48/1 196/17/1 146/32/1 214/31/1
f 189/17/5 152/32/5 155/56/5 188/20/5
f 204/42/3 203/35/3 152/39/3 189/41/3
f 191/11/3 151/6/3 165/5/3 190/10/3
f 192/21/6 156/57/6 151/13/6 191/4/6
f 193/29/6 160/58/6 156/57/6 192/21/6
f 194/17/6 145/32/6 160/58/6 193/29/6
f 195/1/1 168/14/1 145/13/1 194/4/1
f 199/26/3 187/26/3 177/25/3 197/25/3
f 216/36/3 176/27/3 167/27/3 215/36/3
f 198/19/1 186/19/1 188/20/1 200/20/1
f 202/45/1 166/15/1 175/15/1 201/45/1
f 203/31/4 165/14/4 166/15/4 202/45/4
f 204/42/3 190/10/3 165/5/3 203/35/3
f 205/43/3 184/9/3 190/10/3 204/42/3
f 206/31/3 164/14/3 184/9/3 205/43/3
f 207/37/2 163/8/2 164/5/2 206/35/2
f 208/37/1 172/8/1 163/8/1 207/37/1
f 209/34/2 171/24/2 172/8/2 208/37/2
f 210/34/3 162/24/3 171/24/3 209/34/3
f 211/31/2 161/14/2 162/24/2 210/34/2
f 212/47/1 179/2/1 161/5/1 211/35/1
f 213/48/1 195/1/1 179/2/1 212/47/1
f 214/31/1 168/14/1 195/1/1 213/48/1

v -19 -110 -499.91714477539062
v -19 110 -499.91714477539062
v 19 -110 -499.91714477539062
v 19 110 -499.91714477539062
v 19 -110 -949.91717529296875
v 19 110 -949.91717529296875
v -19 -110 -949.91717529296875
v -19 110 -949.91717529296875
v 19 -110 -898.89447021484375
v 19 110 -898.89447021484375
v -19 110 -898.89447021484375
v -19 -110 -898.89447021484375
v 19 -110 -551.0418701171875
v 19 110 -551.0418701171875
v -19 110 -551.0418701171875
v -19 -110 -551.0418701171875
v 19 -30.05100631713867 -499.91714477539062
v 19 -30.05100631713867 -551.0418701171875
v 19 -30.05100631713867 -898.89447021484375
v 19 -30.05100631713867 -949.91717529296875
v -19 -30.05100631713867 -949.91717529296875
v -19 -30.05100631713867 -898.89447021484375
v -19 -30.05100631713867 -551.0418701171875
v -19 -30.05100631713867 -499.91714477539062
v 6 110 -898.89447021484375
v 6 110 -551.0418701171875
v 6 -30.05100631713867 -551.0418701171875
v 6 -30.05100631713867 -898.89447021484375
v -6 110 -898.89447021484375
v -6 110 -551.0418701171875
v -6 -30.05100631713867 -898.89447021484375
v -6 -30.05100631713867 -551.0418701171875
v 5.99892902374268 110 -551.0418701171875
v 5.99892902374268 110 -499.91714477539062
v 5.99892902374268 -30.05100631713867 -499.91714477539062
v 5.99892902374268 -110 -499.91714477539062
v 5.99892902374268 -110 -551.0418701171875
v 5.99892902374268 -110 -898.89447021484375
v 5.99892902374268 -110 -949.91717529296875
v 5.99892902374268 -30.05100631713867 -949.91717529296875
v 5.99892902374268 110 -949.91717529296875
v 5.99892902374268 110 -898.89447021484375
v -5.9994215965271 110 -551.0418701171875
v -5.9994215965271 110 -898.89447021484375
v -5.9994215965271 110 -949.91717529296875
v -5.9994215965271 -30.05100631713867 -949.91717529296875
v -5.9994215965271 -110 -949.91717529296875
v -5.9994215965271 -110 -898.89447021484375
v -5.9994215965271 -110 -551.0418701171875
v -5.9994215965271 -110 -499.91714477539062
v -5.9994215965271 -30.05100631713867 -499.91714477539062
v -5.9994215965271 110 -499.91714477539062
v 5.99892902374268 100 -551.0418701171875
v 5.99892902374268 100 -898.89447021484375
v -5.9994215965271 100 -551.0418701171875
v -5.9994215965271 100 -898.89447021484375
v -6 100.05024719238281 -898.89447021484375
v -19 100.05024719238281 -898.89447021484375
v -19 100.05024719238281 -949.91717529296875
v -5.9994215965271 100.05024719238281 -949.91717529296875
v 5.99892902374268 100.05024719238281 -949.91717529296875
v 19 100.05024719238281 -949.91717529296875
v 19 100.05024719238281 -898.89447021484375
v 6 100.05024719238281 -898.89447021484375
v 6 100.05024719238281 -551.0418701171875
v 19 100.05024719238281 -551.0418701171875
v 19 100.05024719238281 -499.91714477539062
v 5.99892902374268 100.05024719238281 -499.91714477539062
v -5.9994215965271 100.05024719238281 -499.91714477539062
v -19 100.05024719238281 -499.91714477539062
v -19 100.05024719238281 -551.0418701171875
v -6 100.05024719238281 -551.0418701171875
# 72 vertices

# 0 normal

# 0 texture coordinate

o 4
usemtl default
f 266/4/1 252/3/1 251/2/1 267/1/1
f 235/8/2 225/7/2 221/6/2 236/5/2
f 255/12/3 263/11/3 262/10/3 256/9/3
f 228/16/4 238/15/4 237/14/4 223/13/4
f 260/20/5 258/19/5 257/18/5 261/17/5
f 263/4/6 255/3/6 254/22/6 264/21/6
f 235/8/2 234/24/2 229/23/2 225/7/2
f 270/19/5 272/20/5 271/26/5 269/25/5
f 238/15/4 228/16/4 232/28/4 239/27/4
f 264/21/6 254/22/6 253/30/6 265/29/6
f 234/24/2 233/14/2 219/13/2 229/23/2
f 249/25/5 259/26/5 268/4/5 250/3/5
f 239/27/4 232/28/4 217/6/4 240/5/4
f 265/29/6 253/30/6 252/18/6 266/17/6
f 282/34/2 230/33/2 220/32/2 283/31/2
f 287/36/4 239/27/4 240/5/4 286/35/4
f 278/35/2 222/39/2 226/38/2 279/37/2
f 277/43/3 276/42/3 261/41/3 257/40/3
f 274/45/4 227/44/4 224/32/4 275/31/4
f 273/45/4 247/15/4 248/27/4 288/36/4
f 286/35/4 218/39/4 231/46/4 287/36/4
f 285/48/1 284/47/1 250/18/1 268/17/1
f 281/34/3 242/33/3 230/33/3 282/34/3
f 247/15/5 238/15/5 239/27/5 248/27/5
f 280/37/1 279/37/1 226/38/1 241/49/1
f 243/24/5 234/24/5 235/8/5 244/8/5
f 273/45/1 245/50/1 227/44/1 274/45/1
f 288/36/3 287/36/3 231/46/3 246/46/3
f 250/3/5 220/6/5 230/51/5 249/25/5
f 284/47/1 283/35/1 220/39/1 250/18/1
f 252/3/1 219/6/1 233/5/1 251/2/1
f 253/30/6 229/52/6 219/39/6 252/18/6
f 254/22/6 225/53/6 229/52/6 253/30/6
f 255/3/6 221/6/6 225/53/6 254/22/6
f 256/9/3 236/14/3 221/13/3 255/12/3
f 277/43/3 257/40/3 222/32/3 278/31/3
f 258/19/5 226/54/5 222/39/5 257/18/5
f 259/26/5 231/55/5 218/13/5 268/4/5
f 285/48/1 268/17/1 218/32/1 286/31/1
f 261/17/5 224/32/5 227/56/5 260/20/5
f 276/42/3 275/35/3 224/39/3 261/41/3
f 263/11/3 223/6/3 237/5/3 262/10/3
f 264/21/6 228/57/6 223/13/6 263/4/6
f 265/29/6 232/58/6 228/57/6 264/21/6
f 266/17/6 217/32/6 232/58/6 265/29/6
f 267/1/1 240/14/1 217/13/1 266/4/1
f 271/26/3 259/26/3 249/25/3 269/25/3
f 288/36/3 248/27/3 239/27/3 287/36/3
f 270/19/1 258/19/1 260/20/1 272/20/1
f 274/45/1 238/15/1 247/15/1 273/45/1
f 275/31/4 237/14/4 238/15/4 274/45/4
f 276/42/3 262/10/3 237/5/3 275/35/3
f 277/43/3 256/9/3 262/10/3 276/42/3
f 278/31/3 236/14/3 256/9/3 277/43/3
f 279/37/2 235/8/2 236/5/2 278/35/2
f 280/37/1 244/8/1 235/8/1 279/37/1
f 281/34/2 243/24/2 244/8/2 280/37/2
f 282/34/3 234/24/3 243/24/3 281/34/3
f 283/31/2 233/14/2 234/24/2 282/34/2
f 284/47/1 251/2/1 233/5/1 283/35/1
f 285/48/1 267/1/1 251/2/1 284/47/1
f 286/31/1 240/14/1 267/1/1 285/48/1

